<svg xmlns="http://www.w3.org/2000/svg" width="980" height="280" viewBox="0 0 980 280" font-family="-apple-system,Segoe UI,Helvetica,Arial,sans-serif">
<rect width="980" height="280" fill="white"/>
<text x="14" y="28" font-size="17" font-weight="700" fill="#1f2328">Substrate methods: property coverage</text>
<text x="14" y="48" font-size="11" fill="#8c959f">green = property holds, red = fails. Every cell computed from real bytes by graphs/make_graphs.py. Names no implementation.</text>
<text x="435" y="62" font-size="11.5" font-weight="600" fill="#1f2328" text-anchor="middle">Exactly-once</text>
<text x="585" y="62" font-size="11.5" font-weight="600" fill="#1f2328" text-anchor="middle">Byte-reproducible</text>
<text x="735" y="62" font-size="11.5" font-weight="600" fill="#1f2328" text-anchor="middle">Offline-verify</text>
<text x="885" y="62" font-size="11.5" font-weight="600" fill="#1f2328" text-anchor="middle">Adversarial-safe</text>
<rect x="0" y="70" width="980" height="38" fill="#f6f8fa"/>
<text x="14" y="93" font-size="12" fill="#1f2328" font-weight="700">Reference: integer-ms + JCS (action_ref)</text>
<rect x="368" y="76" width="134" height="26" rx="5" fill="#1a7f37" opacity="0.14"/>
<text x="435" y="93" font-size="11.5" font-weight="700" fill="#1a7f37" text-anchor="middle">PASS</text>
<rect x="518" y="76" width="134" height="26" rx="5" fill="#1a7f37" opacity="0.14"/>
<text x="585" y="93" font-size="11.5" font-weight="700" fill="#1a7f37" text-anchor="middle">PASS</text>
<rect x="668" y="76" width="134" height="26" rx="5" fill="#1a7f37" opacity="0.14"/>
<text x="735" y="93" font-size="11.5" font-weight="700" fill="#1a7f37" text-anchor="middle">PASS</text>
<rect x="818" y="76" width="134" height="26" rx="5" fill="#1a7f37" opacity="0.14"/>
<text x="885" y="93" font-size="11.5" font-weight="700" fill="#1a7f37" text-anchor="middle">PASS</text>
<rect x="0" y="108" width="980" height="38" fill="white"/>
<text x="14" y="131" font-size="12" fill="#1f2328" font-weight="400">second-precision timestamp</text>
<rect x="368" y="114" width="134" height="26" rx="5" fill="#cf222e" opacity="0.14"/>
<text x="435" y="131" font-size="11.5" font-weight="700" fill="#cf222e" text-anchor="middle">FAIL</text>
<rect x="518" y="114" width="134" height="26" rx="5" fill="#1a7f37" opacity="0.14"/>
<text x="585" y="131" font-size="11.5" font-weight="700" fill="#1a7f37" text-anchor="middle">PASS</text>
<rect x="668" y="114" width="134" height="26" rx="5" fill="#1a7f37" opacity="0.14"/>
<text x="735" y="131" font-size="11.5" font-weight="700" fill="#1a7f37" text-anchor="middle">PASS</text>
<rect x="818" y="114" width="134" height="26" rx="5" fill="#1a7f37" opacity="0.14"/>
<text x="885" y="131" font-size="11.5" font-weight="700" fill="#1a7f37" text-anchor="middle">PASS</text>
<rect x="0" y="146" width="980" height="38" fill="white"/>
<text x="14" y="169" font-size="12" fill="#1f2328" font-weight="400">RFC 3339 string timestamp</text>
<rect x="368" y="152" width="134" height="26" rx="5" fill="#1a7f37" opacity="0.14"/>
<text x="435" y="169" font-size="11.5" font-weight="700" fill="#1a7f37" text-anchor="middle">PASS</text>
<rect x="518" y="152" width="134" height="26" rx="5" fill="#cf222e" opacity="0.14"/>
<text x="585" y="169" font-size="11.5" font-weight="700" fill="#cf222e" text-anchor="middle">FAIL</text>
<rect x="668" y="152" width="134" height="26" rx="5" fill="#1a7f37" opacity="0.14"/>
<text x="735" y="169" font-size="11.5" font-weight="700" fill="#1a7f37" text-anchor="middle">PASS</text>
<rect x="818" y="152" width="134" height="26" rx="5" fill="#1a7f37" opacity="0.14"/>
<text x="885" y="169" font-size="11.5" font-weight="700" fill="#1a7f37" text-anchor="middle">PASS</text>
<rect x="0" y="184" width="980" height="38" fill="white"/>
<text x="14" y="207" font-size="12" fill="#1f2328" font-weight="400">bare concatenation</text>
<rect x="368" y="190" width="134" height="26" rx="5" fill="#cf222e" opacity="0.14"/>
<text x="435" y="207" font-size="11.5" font-weight="700" fill="#cf222e" text-anchor="middle">FAIL</text>
<rect x="518" y="190" width="134" height="26" rx="5" fill="#1a7f37" opacity="0.14"/>
<text x="585" y="207" font-size="11.5" font-weight="700" fill="#1a7f37" text-anchor="middle">PASS</text>
<rect x="668" y="190" width="134" height="26" rx="5" fill="#1a7f37" opacity="0.14"/>
<text x="735" y="207" font-size="11.5" font-weight="700" fill="#1a7f37" text-anchor="middle">PASS</text>
<rect x="818" y="190" width="134" height="26" rx="5" fill="#cf222e" opacity="0.14"/>
<text x="885" y="207" font-size="11.5" font-weight="700" fill="#cf222e" text-anchor="middle">FAIL</text>
<rect x="0" y="222" width="980" height="38" fill="white"/>
<text x="14" y="245" font-size="12" fill="#1f2328" font-weight="400">naive key-order serialization</text>
<rect x="368" y="228" width="134" height="26" rx="5" fill="#1a7f37" opacity="0.14"/>
<text x="435" y="245" font-size="11.5" font-weight="700" fill="#1a7f37" text-anchor="middle">PASS</text>
<rect x="518" y="228" width="134" height="26" rx="5" fill="#cf222e" opacity="0.14"/>
<text x="585" y="245" font-size="11.5" font-weight="700" fill="#cf222e" text-anchor="middle">FAIL</text>
<rect x="668" y="228" width="134" height="26" rx="5" fill="#1a7f37" opacity="0.14"/>
<text x="735" y="245" font-size="11.5" font-weight="700" fill="#1a7f37" text-anchor="middle">PASS</text>
<rect x="818" y="228" width="134" height="26" rx="5" fill="#1a7f37" opacity="0.14"/>
<text x="885" y="245" font-size="11.5" font-weight="700" fill="#1a7f37" text-anchor="middle">PASS</text>
</svg>